<?xml version="1.0" standalone="no"?>
<!DOCTYPE svg PUBLIC "-//W3C//DTD SVG 20010904//EN"
 "http://www.w3.org/TR/2001/REC-SVG-20010904/DTD/svg10.dtd">
<svg version="1.0" xmlns="http://www.w3.org/2000/svg"
 width="1440.000000pt" height="1048.000000pt" viewBox="0 0 1440.000000 1048.000000"
 preserveAspectRatio="xMidYMid meet">

<g transform="translate(0.000000,1048.000000) scale(0.100000,-0.100000)"
fill="#000000" stroke="none">
<path d="M3195 9971 c-6 -4 -39 -14 -75 -21 -81 -17 -215 -65 -251 -91 -15
-10 -31 -19 -36 -19 -11 -1 -72 -47 -150 -117 -88 -77 -104 -95 -144 -159 -19
-30 -48 -77 -65 -103 -17 -26 -41 -74 -54 -107 -13 -32 -27 -63 -31 -69 -13
-19 -49 -190 -62 -290 -24 -196 15 -473 88 -618 14 -28 25 -59 25 -69 0 -10 3
-18 8 -18 4 0 26 -33 50 -72 23 -40 72 -104 107 -143 36 -38 65 -73 65 -77 0
-5 5 -8 11 -8 6 0 31 -18 55 -39 93 -81 243 -154 374 -180 124 -24 318 -19
400 11 8 4 47 17 85 31 217 78 448 298 541 516 14 31 28 63 34 72 16 29 58
201 70 289 13 93 8 320 -9 410 -11 60 -71 252 -81 260 -3 3 -12 21 -20 40 -7
19 -22 44 -32 56 -10 11 -18 26 -18 34 0 14 -77 120 -97 133 -7 4 -13 13 -13
18 0 20 -212 199 -236 199 -5 0 -25 10 -44 23 -37 25 -183 76 -288 102 -69 16
-192 20 -207 6z m260 -158 c11 -6 34 -16 50 -23 17 -7 55 -25 86 -41 31 -16
63 -29 71 -29 8 0 23 -9 33 -20 10 -11 24 -20 32 -20 8 0 11 -5 8 -10 -10 -16
21 -57 55 -75 21 -11 30 -23 30 -41 0 -19 7 -28 30 -35 17 -6 30 -17 30 -24 0
-16 62 -125 71 -125 3 0 11 10 17 23 10 18 11 14 6 -28 -4 -43 -1 -55 19 -83
27 -37 30 -64 31 -277 0 -92 -4 -131 -18 -165 -9 -25 -18 -52 -19 -60 -1 -8
-8 -21 -14 -28 -7 -7 -13 -26 -13 -42 0 -15 -6 -30 -13 -33 -8 -3 -24 -31 -36
-64 -39 -100 -66 -152 -88 -166 -7 -4 -13 -16 -13 -27 0 -10 -8 -21 -19 -25
-22 -7 -121 -112 -121 -129 0 -7 -30 -32 -67 -56 -38 -24 -69 -48 -71 -52 -2
-4 -14 -8 -27 -8 -13 0 -27 -4 -30 -10 -3 -5 -17 -10 -30 -10 -12 0 -26 -7
-29 -16 -3 -9 -12 -14 -20 -11 -8 3 -22 -3 -32 -14 -31 -34 -184 -22 -271 23
-18 9 -47 19 -65 23 -18 4 -45 20 -60 36 -15 16 -36 29 -47 29 -11 0 -23 9
-26 22 -7 19 -42 58 -70 76 -5 4 -15 16 -21 27 -6 11 -22 26 -36 32 -14 7 -37
31 -52 53 -14 22 -31 40 -36 40 -6 0 -10 10 -10 23 0 23 -45 97 -59 97 -5 0
-14 27 -20 60 -7 33 -16 62 -21 65 -6 4 -10 13 -10 22 0 9 -6 24 -13 32 -16
19 -47 221 -47 303 0 89 19 203 45 271 13 34 24 56 25 49 0 -7 5 -10 10 -7 6
4 8 15 5 25 -4 12 3 24 22 38 16 11 35 33 43 48 16 30 68 84 81 84 4 0 10 9
14 19 3 11 14 23 25 26 10 3 25 21 34 40 17 35 92 95 120 95 25 0 109 43 127
65 15 17 34 20 165 25 152 5 204 2 239 -17z"/>
<path d="M3466 7630 c-27 -11 -54 -24 -60 -30 -5 -5 -16 -10 -24 -10 -30 0
-217 -146 -344 -269 -42 -41 -83 -78 -90 -82 -21 -13 0 -23 25 -11 48 24 105
25 141 3 27 -17 37 -34 55 -89 12 -40 21 -94 21 -132 0 -91 -27 -305 -57 -445
-8 -38 -19 -95 -23 -125 -5 -30 -21 -109 -35 -175 -14 -66 -30 -142 -35 -170
-9 -54 -24 -124 -46 -225 -8 -36 -14 -75 -14 -87 0 -12 -4 -25 -10 -28 -5 -3
-10 -21 -10 -39 0 -18 -4 -46 -9 -62 -8 -27 -21 -85 -42 -194 -4 -25 -15 -79
-24 -120 -9 -41 -21 -100 -26 -130 -4 -30 -13 -75 -19 -100 -6 -25 -15 -65
-20 -90 -15 -75 -41 -202 -50 -250 -5 -25 -14 -67 -20 -95 -6 -27 -15 -70 -20
-95 -19 -92 -30 -146 -41 -190 -11 -49 -25 -123 -34 -185 -4 -22 -10 -49 -15
-60 -4 -11 -14 -49 -21 -85 -6 -36 -16 -70 -20 -76 -5 -6 -7 -13 -4 -16 5 -5
-9 -88 -47 -268 -11 -52 -22 -108 -25 -125 -2 -16 -8 -39 -13 -50 -5 -11 -11
-38 -13 -60 -5 -40 -29 -160 -46 -225 -5 -19 -14 -60 -20 -90 -6 -30 -23 -111
-36 -180 -14 -69 -32 -156 -41 -195 -8 -38 -19 -90 -24 -115 -18 -95 -42 -209
-67 -320 -14 -63 -29 -137 -34 -165 -4 -27 -14 -75 -22 -105 -8 -30 -20 -82
-26 -115 -7 -33 -17 -77 -22 -98 -12 -47 -4 -62 11 -21 25 69 53 141 65 169 7
17 21 50 30 75 10 25 21 54 25 65 5 11 18 47 30 80 11 33 25 69 30 80 13 29
88 228 117 310 13 39 28 79 33 90 5 11 28 72 50 135 23 63 53 143 66 178 13
34 24 67 24 73 0 5 9 29 20 51 11 23 20 50 20 59 0 10 5 21 10 24 6 3 10 17
10 30 0 13 4 26 9 29 5 3 12 18 16 33 3 16 12 42 20 58 7 17 15 39 18 50 3 11
31 92 62 180 32 88 60 174 62 190 3 17 9 35 13 40 5 6 29 73 55 150 26 77 51
149 55 160 9 21 69 203 110 335 13 41 27 80 31 85 3 6 12 34 19 63 6 28 16 55
21 58 5 3 9 20 9 38 0 17 4 36 9 42 5 5 25 63 46 129 20 66 42 138 50 160 7
22 17 56 20 75 4 19 11 40 15 45 4 6 10 24 14 40 12 55 38 140 47 157 5 10 9
24 9 31 0 8 8 40 19 73 10 32 26 88 36 124 9 36 21 74 25 85 8 21 59 222 67
265 2 14 8 34 13 45 5 11 11 34 14 50 2 17 14 68 26 115 33 132 57 245 80 370
12 63 25 131 31 150 5 19 18 106 29 192 17 127 20 197 17 365 -2 115 -8 224
-13 243 -9 36 -43 101 -67 132 -33 42 -139 50 -221 18z"/>
<path d="M5738 6674 c-46 -11 -99 -30 -118 -42 -41 -24 -105 -98 -121 -139 -6
-15 -15 -37 -19 -48 -18 -45 -23 -88 -29 -270 l-6 -190 -55 -1 -55 -1 0 -249
0 -249 55 -5 55 -5 3 -1202 2 -1203 285 0 c272 0 285 1 295 20 7 13 10 392 9
1202 l-1 1183 44 3 c24 1 53 5 66 7 l23 6 -2 233 c0 128 -4 238 -9 246 -6 9
-32 12 -92 11 -47 -1 -97 1 -111 5 -26 6 -27 9 -27 76 0 43 6 83 16 103 13 29
21 33 67 39 29 3 71 6 93 6 23 0 46 6 52 13 15 17 15 454 0 463 -6 4 -84 7
-174 8 -137 1 -177 -2 -246 -20z"/>
<path d="M11454 6691 c-6 -7 -4 -3540 2 -3582 l7 -39 288 0 c268 0 289 1 289
18 0 9 1 530 1 1157 0 1243 1 1262 52 1293 33 20 54 10 77 -34 19 -37 19 -56
20 -1333 1 -574 4 -1056 7 -1072 l6 -29 286 2 286 3 0 1235 c0 1404 0 1407
-71 1555 -30 62 -130 174 -175 196 -97 46 -215 53 -290 18 -69 -34 -140 -85
-153 -111 -6 -13 -18 -23 -26 -23 -13 0 -15 52 -18 370 -1 203 -4 371 -6 372
-5 5 -577 9 -582 4z"/>
<path d="M7741 6427 c-5 -13 -9 -115 -10 -227 0 -154 -3 -205 -13 -212 -7 -4
-32 -8 -55 -8 l-43 0 0 -250 0 -249 56 -3 57 -3 -2 -805 c-1 -595 2 -866 13
-1041 14 -228 15 -238 47 -315 36 -87 99 -163 160 -195 63 -32 155 -43 354
-44 l190 0 0 255 0 255 -60 3 c-82 5 -91 12 -98 74 -10 79 -9 1800 0 1809 4 4
37 9 73 11 l65 3 0 249 0 249 -68 -1 c-37 0 -69 4 -72 8 -3 5 -6 96 -6 202 0
106 -3 208 -6 226 l-5 32 -284 0 -284 0 -9 -23z"/>
<path d="M4749 6081 c-67 -26 -105 -58 -161 -135 -59 -81 -70 -76 -66 31 l3
68 -295 0 -295 0 0 -1485 0 -1485 288 -3 c158 -1 288 -1 289 0 2 2 5 543 8
1203 5 1312 2 1248 63 1269 23 8 31 6 50 -12 l22 -23 3 -512 c1 -281 3 -829 5
-1217 l2 -705 293 -3 292 -2 0 1212 c0 1284 -4 1399 -48 1529 -24 72 -65 141
-115 196 -37 40 -53 50 -130 82 -42 17 -155 13 -208 -8z"/>
<path d="M6736 6092 c-3 -5 -20 -12 -37 -16 -97 -19 -229 -121 -297 -230 -141
-223 -171 -449 -171 -1291 -1 -428 13 -796 33 -930 25 -162 79 -310 140 -382
14 -17 26 -34 26 -38 0 -15 138 -120 160 -123 3 0 19 -6 35 -12 99 -40 309
-52 425 -24 106 25 168 60 250 144 79 81 125 158 170 290 7 19 16 44 20 55 20
48 41 204 51 386 15 264 5 1412 -13 1521 -7 42 -16 80 -20 84 -5 4 -8 17 -8
29 0 12 -11 48 -24 81 -102 256 -208 369 -411 440 -58 20 -318 33 -329 16z
m200 -563 c18 -20 19 -51 19 -958 0 -880 -1 -939 -18 -964 -19 -30 -52 -35
-81 -14 -13 9 -20 35 -27 88 -10 90 -11 1664 0 1768 5 55 12 77 26 87 27 20
59 17 81 -7z"/>
<path d="M9065 6088 c-76 -19 -180 -75 -238 -128 -160 -146 -229 -340 -257
-719 -23 -307 -8 -1448 20 -1561 5 -19 14 -62 20 -95 55 -273 230 -480 455
-537 66 -17 102 -19 205 -16 85 4 137 10 164 22 21 9 47 16 57 16 11 0 19 4
19 9 0 5 9 12 20 16 30 10 134 115 173 176 31 49 70 127 106 213 45 108 60
236 67 568 6 259 5 276 -11 280 -10 1 -135 1 -279 -2 l-261 -5 -2 -285 c-3
-315 -13 -410 -46 -441 -33 -31 -76 -22 -102 21 -19 34 -20 50 -20 450 l0 415
360 5 c198 3 361 7 363 8 7 4 -8 743 -17 832 -13 128 -22 183 -30 195 -4 6
-13 37 -21 70 -23 108 -121 276 -206 357 -54 50 -138 98 -216 123 -64 21 -95
25 -180 24 -57 -1 -121 -6 -143 -11z m195 -563 c18 -22 37 -457 21 -491 -10
-23 -16 -25 -64 -22 l-52 3 0 246 c0 268 2 279 55 279 15 0 33 -7 40 -15z"/>
<path d="M10555 6095 c-5 -2 -37 -11 -70 -21 -76 -22 -164 -80 -238 -156 -58
-61 -137 -181 -137 -209 0 -8 -4 -19 -9 -24 -19 -21 -51 -189 -65 -353 -23
-246 -23 -1210 0 -1449 8 -93 17 -186 19 -208 5 -58 40 -201 64 -266 45 -118
159 -267 236 -306 17 -9 32 -19 35 -24 12 -17 130 -41 233 -46 108 -6 241 9
253 28 3 5 12 9 20 9 43 0 179 119 235 205 29 46 89 168 89 183 0 5 8 27 17
48 49 112 68 297 68 649 l0 160 -260 0 -260 0 -5 -325 c-5 -293 -7 -329 -24
-363 -21 -43 -35 -52 -70 -43 -15 4 -32 22 -47 53 l-24 48 -3 848 c-3 874 0
976 35 1003 26 20 53 13 77 -19 20 -27 21 -44 26 -315 l5 -287 275 0 275 0 0
120 c0 369 -41 598 -132 754 -37 62 -145 192 -167 200 -6 2 -18 9 -26 16 -30
25 -117 65 -174 80 -50 13 -222 20 -251 10z"/>
<path d="M4032 2578 c-54 -27 -65 -37 -87 -84 -17 -36 -25 -70 -25 -108 0
-116 46 -161 223 -217 132 -42 145 -49 167 -95 40 -82 17 -149 -66 -190 -46
-23 -62 -26 -106 -20 -74 10 -123 39 -153 89 -14 24 -25 53 -25 64 0 35 -51
41 -64 7 -8 -21 25 -115 54 -152 38 -50 116 -82 199 -82 113 0 185 40 226 127
31 67 33 131 4 190 -33 69 -81 101 -210 143 -144 46 -153 51 -174 96 -23 50
-14 98 27 141 31 32 33 33 117 33 75 -1 89 -3 112 -24 32 -28 49 -57 49 -85 0
-24 31 -44 54 -35 39 15 -1 134 -58 177 -82 61 -174 69 -264 25z"/>
<path d="M5186 2585 c-73 -30 -127 -81 -162 -154 -54 -114 -67 -235 -39 -357
42 -184 146 -284 297 -284 58 0 77 5 126 32 57 32 73 48 102 97 9 14 23 37 32
51 44 68 50 314 10 424 -29 79 -85 144 -158 183 -74 39 -127 41 -208 8z m205
-97 c82 -55 113 -133 113 -288 1 -154 -14 -202 -84 -271 -49 -48 -64 -57 -103
-61 -96 -11 -157 17 -217 100 -39 56 -53 132 -48 258 4 79 11 121 25 154 61
137 198 184 314 108z"/>
<path d="M10260 2601 c-96 -20 -175 -98 -220 -216 -19 -50 -23 -81 -24 -185
-1 -109 2 -133 23 -189 55 -149 145 -221 276 -221 46 0 79 6 113 22 46 22 142
109 142 130 0 5 6 24 14 41 22 49 28 84 33 182 10 206 -57 349 -195 412 -60
28 -110 35 -162 24z m158 -103 c17 -11 32 -24 32 -29 0 -5 6 -9 13 -9 7 0 17
-8 22 -18 9 -17 16 -32 49 -101 16 -34 14 -225 -4 -295 -11 -48 -24 -70 -65
-113 -58 -61 -110 -80 -189 -69 -39 6 -56 16 -94 55 -66 67 -68 71 -86 140
-29 115 -11 287 39 363 65 98 189 132 283 76z"/>
<path d="M12483 2591 c-106 -42 -170 -170 -133 -267 14 -37 68 -96 99 -110 33
-15 117 -46 202 -75 58 -19 70 -27 89 -61 17 -31 21 -49 16 -80 -15 -91 -69
-133 -171 -133 -51 0 -70 5 -110 30 -48 30 -52 35 -75 90 -27 65 -39 75 -69
56 -23 -15 4 -110 48 -166 43 -57 88 -76 187 -82 143 -9 221 48 255 184 11 46
10 58 -7 109 -25 73 -75 118 -169 150 -38 13 -78 24 -88 24 -29 0 -114 49
-131 75 -22 33 -20 91 4 130 31 50 95 69 180 56 43 -7 60 -16 87 -45 19 -20
33 -46 33 -61 0 -18 7 -26 24 -31 38 -9 49 3 41 44 -9 50 -27 81 -67 118 -65
60 -162 78 -245 45z"/>
<path d="M6184 2576 c-2 -6 -3 -182 -2 -391 l3 -380 145 -2 c80 -2 168 0 196
3 51 5 52 6 50 37 l-2 32 -159 5 -160 5 -5 350 -5 350 -28 1 c-16 1 -31 -4
-33 -10z"/>
<path d="M7160 2301 c0 -159 4 -300 9 -313 5 -13 15 -42 21 -65 14 -45 43 -77
103 -111 30 -18 54 -22 118 -22 68 0 85 4 121 26 51 33 98 83 98 106 0 9 4 19
8 22 18 11 27 306 19 586 -2 54 -3 55 -32 55 l-30 0 -5 -300 c-5 -329 -7 -335
-69 -388 -23 -19 -47 -27 -95 -32 -57 -6 -69 -4 -106 16 -26 15 -50 39 -64 64
-20 38 -21 57 -26 340 l-5 300 -32 3 -33 3 0 -290z"/>
<path d="M8247 2584 c-14 -14 -7 -62 10 -68 9 -4 55 -6 101 -5 56 1 87 -2 92
-10 4 -7 7 -162 7 -345 0 -183 3 -338 7 -345 8 -13 42 -15 50 -2 3 5 6 158 6
340 1 183 4 339 7 347 4 11 28 14 110 14 l104 0 -3 38 -3 37 -241 3 c-132 1
-243 -1 -247 -4z"/>
<path d="M9342 2582 c-9 -7 -12 -92 -10 -393 l3 -384 27 -3 c24 -3 27 0 33 40
4 24 5 201 3 393 -3 341 -4 350 -23 353 -11 1 -26 -2 -33 -6z"/>
<path d="M11226 2581 c-9 -13 -10 -757 -2 -770 9 -14 43 -15 51 -1 3 5 6 136
6 291 0 273 2 309 19 309 7 0 40 -53 86 -136 6 -11 28 -52 49 -90 21 -38 52
-94 67 -124 16 -30 38 -71 50 -90 11 -19 34 -60 49 -91 35 -69 49 -81 86 -77
l28 3 0 390 0 390 -32 3 -33 3 0 -300 c0 -246 -2 -301 -13 -301 -20 0 -39 26
-78 105 -43 87 -115 218 -144 265 -19 30 -37 64 -113 206 -9 17 -22 24 -42 24
-16 0 -31 -4 -34 -9z"/>
</g>
</svg>
