<svg id="Layer_1" data-name="Layer 1" xmlns="http://www.w3.org/2000/svg" viewBox="0 0 113.98 69.29"><defs><style>.cls-1{fill:#00a7e1;}.cls-2{fill:#004987;}.cls-3{fill:#fff;}</style></defs><title>QBS logo</title><path class="cls-1" d="M96.05,27.08a14.74,14.74,0,0,0-4.61-2.83A46.31,46.31,0,0,0,84.55,22a19,19,0,0,1-6.3-2.52,3.66,3.66,0,0,1-.5-.38A4,4,0,0,1,76.53,16a4.24,4.24,0,0,1,1-2.8,4.59,4.59,0,0,1,.62-.63,6.87,6.87,0,0,1,4.69-1.54,21.18,21.18,0,0,1,3.57.25,6.05,6.05,0,0,1,2.61,1.12,3.49,3.49,0,0,1,.86,1,5.88,5.88,0,0,1,.54,1.2l.06.23h0c.1.34.18.67.25,1a5.77,5.77,0,0,1,.11.94v1.87h6.73q0-.91-.12-1.68c0-.18,0-.36-.06-.54-.09-.8-.21-1.61-.34-2.43a9.71,9.71,0,0,0-.4-1.63h0a2.67,2.67,0,0,0-.14-.34,8.83,8.83,0,0,0-.91-1.6A15.41,15.41,0,0,0,94.45,9a10.71,10.71,0,0,0-2.38-2,23.32,23.32,0,0,0-2.6-1.31,11.6,11.6,0,0,0-3.24-.89,25.25,25.25,0,0,0-3-.2H51.41l-1,.69c-.66.47-1.13.82-1.42,1a7.33,7.33,0,0,1-.85.59,19.48,19.48,0,0,1,5.53,4,21.07,21.07,0,0,1,4.89,7.88V11.06h6.6A8.74,8.74,0,0,1,67,11.4a6.93,6.93,0,0,1,2.2,1.18,4.46,4.46,0,0,1,.91,1,5.39,5.39,0,0,1,.79,3,5.36,5.36,0,0,1-.63,2.63,5.14,5.14,0,0,1-1.25,1.48,8.67,8.67,0,0,1-5.64,1.64H59.5a26.16,26.16,0,0,1,.37,4.49c0,.65,0,1.29-.07,1.92h4.14a17.17,17.17,0,0,1,4.18.44l.56.17h0a7.82,7.82,0,0,1,1.72.76l0,0c.16.1.31.21.45.31a5,5,0,0,1,1.53,1.91,6.87,6.87,0,0,1,.53,2.85,6.49,6.49,0,0,1-.56,2.85,5.46,5.46,0,0,1-1.62,2A8.87,8.87,0,0,1,68,41.34l-.07,0a4.39,4.39,0,0,1-.52.13.37.37,0,0,1-.15,0l-.64.13h0a19.26,19.26,0,0,1-2.29.19H58.59v-7A21.07,21.07,0,0,1,53.7,42.7a20.11,20.11,0,0,1-9.56,5.61h41a14.94,14.94,0,0,0,10.07-3.55,11.4,11.4,0,0,0,4.23-9,11.22,11.22,0,0,0-3.43-8.64M90.62,40a7.68,7.68,0,0,1-5.38,1.89h-7l.11-.19h0l.11-.21a1.71,1.71,0,0,1,.13-.23l.27-.58A14.11,14.11,0,0,0,80,35a11.52,11.52,0,0,0-2.52-7.47A12.68,12.68,0,0,0,76,26.11c.43.23.89.45,1.36.65A35.72,35.72,0,0,0,83,28.62a38.11,38.11,0,0,1,5,1.52,14.38,14.38,0,0,1,3,1.52,4.51,4.51,0,0,1,1.72,3.71,6,6,0,0,1-2,4.58"/><path class="cls-2" d="M56.81,22.33a22.42,22.42,0,0,0-.91-3.52A21,21,0,0,0,51,10.93a19.48,19.48,0,0,0-5.53-4,6,6,0,0,0,.85-.59c.29-.23.76-.58,1.42-1l1-.69H35.42a23.34,23.34,0,0,0-7.28,1.1h0a20.4,20.4,0,0,0-4.43,2.08l-.1.06c-.28.18-.55.36-.82.56l-.27.19-.62.47-.35.29c-.18.14-.36.3-.53.45l-.36.33q-.43.39-.84.81a21.41,21.41,0,0,0-6.07,13.5v.05c-.07.76-.1,1.54-.1,2.34A22,22,0,0,0,19.07,41.9c.24.27.49.54.75.8l.09.09.57.56a19.15,19.15,0,0,0,4.87,3.37l-.06,0a22,22,0,0,0,10.13,2.29,23.08,23.08,0,0,0,7.33-1.13l3.51,4.4,5-4-2.74-3.41A21.72,21.72,0,0,0,51,42.7a21,21,0,0,0,4.89-7.88,23.35,23.35,0,0,0,1.21-6.08c0-.63.07-1.27.07-1.92a26.08,26.08,0,0,0-.37-4.49M46,38.11a15.4,15.4,0,0,1-1.66,1.49l-5.76-7.22-5,4,4.66,5.84a18.25,18.25,0,0,1-2.14.21h-.65a13.92,13.92,0,0,1-10.59-4.36,14.83,14.83,0,0,1-2.34-3.27,16.4,16.4,0,0,1-1.84-7.18c0-.28,0-.56,0-.84a15.72,15.72,0,0,1,4.2-11.29,13.78,13.78,0,0,1,9.93-4.35l.66,0A14,14,0,0,1,46,15.53a14.89,14.89,0,0,1,2.34,3.28,16.22,16.22,0,0,1,1.8,6.59c0,.46.05.94.05,1.42A15.78,15.78,0,0,1,46,38.11"/><path class="cls-3" d="M15.12,58.29c0-1.46.65-2.19,2-2.19s2,.73,2,2.19v2.32c0,1.11-.38,1.79-1.14,2.06l.23,1.08h-.73l-.16-1a3.14,3.14,0,0,1-.91-.12,1.53,1.53,0,0,1-.67-.38,1.67,1.67,0,0,1-.42-.68,2.88,2.88,0,0,1-.14-1Zm1,2.51c0,.69.31,1,.93,1l-.26-1.13h.76l.16,1A.59.59,0,0,0,18,61.4a1.81,1.81,0,0,0,.07-.6V58.21c0-.68-.31-1-.94-1s-.93.34-.93,1Z"/><path class="cls-3" d="M20.16,59.28a2.35,2.35,0,0,1,.09-.53,1.29,1.29,0,0,1,.25-.46A1.26,1.26,0,0,1,21,58a2,2,0,0,1,.76-.12,2.18,2.18,0,0,1,.72.11.94.94,0,0,1,.46.31,1.23,1.23,0,0,1,.25.54,3.13,3.13,0,0,1,.08.8v2.83l-.31.16a1.78,1.78,0,0,1-.39.13,3,3,0,0,1-.51.09,6.66,6.66,0,0,1-.68,0,1.29,1.29,0,0,1-1-.35,1.63,1.63,0,0,1-.32-1.12v-.21a1.14,1.14,0,0,1,1.3-1.34,3.39,3.39,0,0,1,.64,0,.87.87,0,0,1,.29.08v-.52a.66.66,0,0,0-.14-.47.54.54,0,0,0-.44-.16.82.82,0,0,0-.44.11.49.49,0,0,0-.2.37ZM21,61.54c0,.26.1.4.31.4a4.93,4.93,0,0,0,.61,0,1.3,1.3,0,0,0,.32-.07V60.77a1.18,1.18,0,0,0-.34-.09,4.47,4.47,0,0,0-.59,0c-.21,0-.31.12-.31.35Z"/><path class="cls-3" d="M25.41,56.69v1.24h.77v.86h-.77v2.94q0,.21.12.21a.81.81,0,0,0,.31,0,1.74,1.74,0,0,0,.36-.16l.27.83a2.27,2.27,0,0,1-.41.21,1.62,1.62,0,0,1-.54.08c-.73,0-1.1-.44-1.1-1.32V58.79H24v-.86h.38V57Z"/><path class="cls-3" d="M27.14,59.28a2.35,2.35,0,0,1,.09-.53,1.46,1.46,0,0,1,.25-.46A1.26,1.26,0,0,1,28,58a2,2,0,0,1,.76-.12,2.18,2.18,0,0,1,.72.11.94.94,0,0,1,.46.31,1.36,1.36,0,0,1,.26.54,3.66,3.66,0,0,1,.08.8v2.83l-.32.16a1.78,1.78,0,0,1-.39.13,3,3,0,0,1-.5.09q-.3,0-.69,0a1.29,1.29,0,0,1-1-.35A1.63,1.63,0,0,1,27,61.38v-.21a1.36,1.36,0,0,1,.33-1,1.39,1.39,0,0,1,1-.3,3.39,3.39,0,0,1,.64,0,.87.87,0,0,1,.29.08v-.52a.66.66,0,0,0-.14-.47.54.54,0,0,0-.44-.16.82.82,0,0,0-.44.11.52.52,0,0,0-.2.37ZM28,61.54c0,.26.1.4.31.4a4.82,4.82,0,0,0,.61,0,1.19,1.19,0,0,0,.32-.07V60.77a1.18,1.18,0,0,0-.34-.09,4.37,4.37,0,0,0-.59,0c-.21,0-.31.12-.31.35Z"/><path class="cls-3" d="M32.33,62.77h-1V58.36a2.2,2.2,0,0,1,.78-.39,2.93,2.93,0,0,1,.8-.12h.53V59h-.54a1.55,1.55,0,0,0-.29,0l-.29.08Z"/><path class="cls-3" d="M38.7,56.22a1.27,1.27,0,0,1,1.42,1.46v.64a1.13,1.13,0,0,1,0,.25,1.09,1.09,0,0,1-.07.24.8.8,0,0,1-.13.22.45.45,0,0,1-.16.15,1.15,1.15,0,0,1,.29.15,1,1,0,0,1,.26.25,1.25,1.25,0,0,1,.19.34,1.35,1.35,0,0,1,.07.41v.87c0,1-.57,1.57-1.7,1.57h-2V56.22Zm-.76,2.66h.76c.28,0,.41-.19.41-.58v-.57c0-.28-.11-.42-.35-.42h-.82Zm0,2.8h1c.4,0,.6-.18.6-.53v-.83q0-.48-.51-.48H37.94Z"/><path class="cls-3" d="M42.57,57.93v3.69c0,.13,0,.2.12.2a3.49,3.49,0,0,0,.59,0,3.26,3.26,0,0,0,.49-.1V57.93h1V62.4l-.55.21a4.84,4.84,0,0,1-.51.14l-.51.08-.52,0c-.75,0-1.12-.45-1.12-1.34V57.93Z"/><path class="cls-3" d="M46.58,61.29a.59.59,0,0,0,.19.45.65.65,0,0,0,.46.16,1,1,0,0,0,.33,0,.54.54,0,0,0,.21-.13.45.45,0,0,0,.11-.17.63.63,0,0,0,0-.19.42.42,0,0,0-.11-.31,1.1,1.1,0,0,0-.38-.2l-.65-.24a2.38,2.38,0,0,1-.39-.2,1.38,1.38,0,0,1-.31-.28,1.27,1.27,0,0,1-.21-.4,1.67,1.67,0,0,1-.08-.52,1.27,1.27,0,0,1,.4-1,1.75,1.75,0,0,1,1.13-.33A2.1,2.1,0,0,1,48,58a1.23,1.23,0,0,1,.44.28,1.19,1.19,0,0,1,.24.46,2.71,2.71,0,0,1,.09.61H47.9a.57.57,0,0,0-.16-.4.61.61,0,0,0-.43-.13.78.78,0,0,0-.29,0,.39.39,0,0,0-.17.09.35.35,0,0,0-.08.13.81.81,0,0,0,0,.15.5.5,0,0,0,0,.19.64.64,0,0,0,.1.13l.13.07.12,0,.66.24.38.18a1.1,1.1,0,0,1,.35.26,1.29,1.29,0,0,1,.25.41,1.61,1.61,0,0,1,.09.58,2.06,2.06,0,0,1-.09.62,1.4,1.4,0,0,1-.29.5,1.45,1.45,0,0,1-.52.33,2.13,2.13,0,0,1-.76.12,1.83,1.83,0,0,1-.7-.12A1.25,1.25,0,0,1,46,62.4a1.49,1.49,0,0,1-.26-.5,2.89,2.89,0,0,1-.09-.61Z"/><path class="cls-3" d="M50.84,55.8v1.34h-1V55.8Zm0,2.13v4.84h-1V57.93Z"/><path class="cls-3" d="M53,62.77H52V58.31A4.66,4.66,0,0,1,53.07,58a5.19,5.19,0,0,1,1-.11c.75,0,1.12.45,1.12,1.34v3.58h-1v-3.7c0-.12,0-.18-.13-.18A4.36,4.36,0,0,0,53,59Z"/><path class="cls-3" d="M56.25,60a2.44,2.44,0,0,1,.45-1.6,1.57,1.57,0,0,1,1.23-.53c1,0,1.57.72,1.57,2.14v.6H57.24v.25a1.35,1.35,0,0,0,.17.75.55.55,0,0,0,.51.26.56.56,0,0,0,.48-.16.62.62,0,0,0,.15-.38h.9A2,2,0,0,1,59,62.44a1.34,1.34,0,0,1-1.06.41q-1.71,0-1.71-2.13Zm2.33-.23a1.37,1.37,0,0,0-.14-.69.56.56,0,0,0-.52-.23.57.57,0,0,0-.52.22,1.28,1.28,0,0,0-.15.7Z"/><path class="cls-3" d="M61.18,61.29a.59.59,0,0,0,.19.45.63.63,0,0,0,.46.16,1,1,0,0,0,.33,0,.54.54,0,0,0,.21-.13.45.45,0,0,0,.11-.17.63.63,0,0,0,0-.19.42.42,0,0,0-.11-.31,1.07,1.07,0,0,0-.39-.2l-.64-.24a2.38,2.38,0,0,1-.39-.2,1.38,1.38,0,0,1-.31-.28,1.53,1.53,0,0,1-.22-.4,1.68,1.68,0,0,1-.07-.52,1.27,1.27,0,0,1,.4-1,1.73,1.73,0,0,1,1.13-.33,2.1,2.1,0,0,1,.67.1,1.11,1.11,0,0,1,.43.28,1.09,1.09,0,0,1,.25.46,2.71,2.71,0,0,1,.09.61h-.86a.53.53,0,0,0-.15-.4.61.61,0,0,0-.43-.13.78.78,0,0,0-.29,0,.39.39,0,0,0-.17.09.26.26,0,0,0-.08.13.89.89,0,0,0,0,.15.49.49,0,0,0,0,.19.64.64,0,0,0,.1.13l.13.07.12,0,.65.24a3.39,3.39,0,0,1,.39.18,1.1,1.1,0,0,1,.35.26,1.29,1.29,0,0,1,.25.41,1.61,1.61,0,0,1,.09.58,2.06,2.06,0,0,1-.09.62,1.29,1.29,0,0,1-.3.5,1.33,1.33,0,0,1-.51.33,2.16,2.16,0,0,1-.76.12,1.83,1.83,0,0,1-.7-.12,1.25,1.25,0,0,1-.47-.33,1.49,1.49,0,0,1-.26-.5,2.89,2.89,0,0,1-.09-.61Z"/><path class="cls-3" d="M65.12,61.29a.59.59,0,0,0,.19.45.65.65,0,0,0,.46.16,1,1,0,0,0,.33,0,.54.54,0,0,0,.21-.13.45.45,0,0,0,.11-.17.63.63,0,0,0,0-.19.42.42,0,0,0-.11-.31,1.07,1.07,0,0,0-.39-.2l-.64-.24a2.38,2.38,0,0,1-.39-.2,1.38,1.38,0,0,1-.31-.28,1.27,1.27,0,0,1-.21-.4,1.42,1.42,0,0,1-.08-.52,1.27,1.27,0,0,1,.4-1,1.75,1.75,0,0,1,1.13-.33,2.1,2.1,0,0,1,.67.1,1.23,1.23,0,0,1,.44.28,1.19,1.19,0,0,1,.24.46,2.71,2.71,0,0,1,.09.61h-.85a.57.57,0,0,0-.16-.4.61.61,0,0,0-.43-.13.78.78,0,0,0-.29,0,.39.39,0,0,0-.17.09.26.26,0,0,0-.08.13.89.89,0,0,0,0,.15.49.49,0,0,0,0,.19.64.64,0,0,0,.1.13l.13.07.12,0,.66.24.38.18a1.1,1.1,0,0,1,.35.26,1.29,1.29,0,0,1,.25.41,1.61,1.61,0,0,1,.09.58,2.06,2.06,0,0,1-.09.62,1.4,1.4,0,0,1-.29.5,1.45,1.45,0,0,1-.52.33,2.16,2.16,0,0,1-.76.12,1.83,1.83,0,0,1-.7-.12,1.25,1.25,0,0,1-.47-.33,1.49,1.49,0,0,1-.26-.5,2.89,2.89,0,0,1-.09-.61Z"/><path class="cls-3" d="M73.29,58.93a4.66,4.66,0,0,1,.5.25,2.27,2.27,0,0,1,.45.37,1.72,1.72,0,0,1,.31.55,2.21,2.21,0,0,1,.12.78,2.52,2.52,0,0,1-.12.79,1.79,1.79,0,0,1-.38.64,1.74,1.74,0,0,1-.63.42,2.44,2.44,0,0,1-.89.15,1.64,1.64,0,0,1-1.34-.5,2.24,2.24,0,0,1-.44-1.45h.9a1,1,0,0,0,.3.68,1.09,1.09,0,0,0,.67.18.9.9,0,0,0,.69-.25.85.85,0,0,0,.24-.6,1.16,1.16,0,0,0-.06-.4,1,1,0,0,0-.16-.26.76.76,0,0,0-.23-.17A1.69,1.69,0,0,0,73,60l-.7-.28a2.26,2.26,0,0,1-.51-.27,1.9,1.9,0,0,1-.4-.4,1.75,1.75,0,0,1-.26-.53,2.09,2.09,0,0,1-.1-.69,1.71,1.71,0,0,1,.45-1.29,1.76,1.76,0,0,1,1.29-.43,2.71,2.71,0,0,1,.81.1,1.13,1.13,0,0,1,.54.32,1.34,1.34,0,0,1,.31.58,4.23,4.23,0,0,1,.11.89H73.6a1,1,0,0,0-.07-.42.52.52,0,0,0-.19-.24.54.54,0,0,0-.28-.11,1.69,1.69,0,0,0-.33,0c-.52,0-.78.21-.78.62a1,1,0,0,0,0,.33.8.8,0,0,0,.13.22,1.1,1.1,0,0,0,.18.14l.19.1Z"/><path class="cls-3" d="M76.73,57.93v3.83a.2.2,0,0,0,0,.14s.09.05.17.05h.47a1.42,1.42,0,0,0,.41-.08q.09-.39.15-.81a7.55,7.55,0,0,0,0-.83V57.93h1V60.2a6.88,6.88,0,0,1-.11,1.29,10.52,10.52,0,0,1-.3,1.2,8.7,8.7,0,0,1-.44,1.08c-.16.34-.33.65-.5.94H76.51l.3-.44c.09-.15.19-.31.27-.46a4.92,4.92,0,0,0,.24-.45,2,2,0,0,0,.18-.4,5.85,5.85,0,0,1-.64,0c-.75,0-1.12-.45-1.12-1.35V57.93Z"/><path class="cls-3" d="M80.78,61.29a.63.63,0,0,0,.19.45.65.65,0,0,0,.46.16,1,1,0,0,0,.33,0,.54.54,0,0,0,.21-.13.45.45,0,0,0,.11-.17.63.63,0,0,0,0-.19.42.42,0,0,0-.11-.31,1,1,0,0,0-.38-.2L81,60.61a2.38,2.38,0,0,1-.39-.2,1.38,1.38,0,0,1-.31-.28,1.27,1.27,0,0,1-.21-.4,1.67,1.67,0,0,1-.08-.52,1.27,1.27,0,0,1,.4-1,1.76,1.76,0,0,1,1.14-.33,2.08,2.08,0,0,1,.66.1,1.15,1.15,0,0,1,.44.28,1.19,1.19,0,0,1,.24.46,2.71,2.71,0,0,1,.09.61H82.1a.53.53,0,0,0-.16-.4.61.61,0,0,0-.43-.13.78.78,0,0,0-.29,0,.39.39,0,0,0-.17.09A.35.35,0,0,0,81,59a.81.81,0,0,0,0,.15.36.36,0,0,0,0,.19.38.38,0,0,0,.09.13l.13.07.12,0,.66.24a3.26,3.26,0,0,1,.38.18,1.1,1.1,0,0,1,.35.26,1.13,1.13,0,0,1,.25.41,1.61,1.61,0,0,1,.09.58,2.06,2.06,0,0,1-.09.62,1.4,1.4,0,0,1-.29.5,1.45,1.45,0,0,1-.52.33,2.13,2.13,0,0,1-.76.12,1.83,1.83,0,0,1-.7-.12,1.14,1.14,0,0,1-.46-.33,1.35,1.35,0,0,1-.27-.5,2.89,2.89,0,0,1-.09-.61Z"/><path class="cls-3" d="M85.1,56.69v1.24h.77v.86H85.1v2.94q0,.21.12.21a.81.81,0,0,0,.31,0,1.74,1.74,0,0,0,.36-.16l.27.83a2,2,0,0,1-.41.21,1.62,1.62,0,0,1-.54.08c-.73,0-1.1-.44-1.1-1.32V58.79h-.38v-.86h.38V57Z"/><path class="cls-3" d="M86.7,60a2.39,2.39,0,0,1,.46-1.6,1.54,1.54,0,0,1,1.23-.53c1,0,1.56.72,1.56,2.14v.6H87.69v.25a1.44,1.44,0,0,0,.17.75.55.55,0,0,0,.51.26.6.6,0,0,0,.49-.16.61.61,0,0,0,.14-.38h.9a1.91,1.91,0,0,1-.43,1.13,1.33,1.33,0,0,1-1.06.41q-1.71,0-1.71-2.13ZM89,59.75a1.27,1.27,0,0,0-.14-.69.56.56,0,0,0-.52-.23.57.57,0,0,0-.52.22,1.28,1.28,0,0,0-.15.7Z"/><path class="cls-3" d="M92,62.77H91V58.32A5.17,5.17,0,0,1,92,58a4.49,4.49,0,0,1,1-.11,1,1,0,0,1,.47.11.57.57,0,0,1,.29.26,3.19,3.19,0,0,1,.61-.26,2.63,2.63,0,0,1,.76-.11c.74,0,1.12.45,1.12,1.34v3.58h-1v-3.7c0-.12,0-.18-.13-.18a4.61,4.61,0,0,0-.56,0l-.46.1v3.75h-1v-3.7q0-.18-.12-.18a4.61,4.61,0,0,0-.56,0L92,59Z"/><path class="cls-3" d="M98,61.29a.62.62,0,0,0,.18.45.65.65,0,0,0,.47.16.93.93,0,0,0,.32,0,.45.45,0,0,0,.32-.3.65.65,0,0,0,0-.19.39.39,0,0,0-.12-.31,1,1,0,0,0-.38-.2l-.65-.24a2.28,2.28,0,0,1-.38-.2,1.43,1.43,0,0,1-.32-.28,1.51,1.51,0,0,1-.21-.4,1.67,1.67,0,0,1-.08-.52,1.3,1.3,0,0,1,.4-1,1.76,1.76,0,0,1,1.14-.33,2.08,2.08,0,0,1,.66.1,1.15,1.15,0,0,1,.44.28,1.21,1.21,0,0,1,.25.46,2.71,2.71,0,0,1,.09.61h-.86a.53.53,0,0,0-.16-.4.6.6,0,0,0-.43-.13.72.72,0,0,0-.28,0,.34.34,0,0,0-.17.09.2.2,0,0,0-.08.13.89.89,0,0,0,0,.15.36.36,0,0,0,0,.19.64.64,0,0,0,.1.13.47.47,0,0,0,.12.07l.13,0,.65.24a3.39,3.39,0,0,1,.39.18,1.23,1.23,0,0,1,.35.26,1.27,1.27,0,0,1,.24.41,1.4,1.4,0,0,1,.1.58,1.79,1.79,0,0,1-.1.62,1.4,1.4,0,0,1-.29.5,1.37,1.37,0,0,1-.52.33,2.11,2.11,0,0,1-.75.12,1.79,1.79,0,0,1-.7-.12,1.17,1.17,0,0,1-.47-.33,1.33,1.33,0,0,1-.26-.5,2,2,0,0,1-.09-.61Z"/></svg>